<svg height="511pt" viewBox="0 -43 511.99959 511" width="511pt" xmlns="http://www.w3.org/2000/svg"><path d="m255.824219 290.21875c8.289062 0 15.003906-6.71875 15.003906-15.003906v-18.378906c0-8.285157-6.714844-15-15.003906-15-8.285157 0-15 6.714843-15 15v18.378906c0 8.285156 6.714843 15.003906 15 15.003906zm0 0"/><path d="m36.675781 149.875c2.933594 2.9375 6.777344 4.40625 10.621094 4.40625 3.835937 0 7.667969-1.460938 10.597656-4.382812 5.863281-5.851563 5.875-15.351563.023438-21.21875l-32.015625-32.085938c-5.851563-5.863281-15.351563-5.878906-21.214844-.023438-5.863281 5.851563-5.875 15.351563-.023438 21.21875zm0 0"/><path d="m464.035156 154.378906c3.921875 0 7.839844-1.527344 10.785156-4.570312l31.914063-32.988282c5.761719-5.953124 5.605469-15.449218-.351563-21.210937-5.953124-5.765625-15.453124-5.605469-21.214843.351563l-31.914063 32.984374c-5.761718 5.957032-5.601562 15.453126.351563 21.214844 2.914062 2.816406 6.671875 4.21875 10.429687 4.21875zm0 0"/><path d="m255.824219 75.3125c8.289062 0 15.003906-6.71875 15.003906-15.003906v-44.804688c0-8.285156-6.714844-15.003906-15.003906-15.003906-8.285157 0-15 6.71875-15 15.003906v44.804688c0 8.285156 6.714843 15.003906 15 15.003906zm0 0"/><path d="m509.921875 275.125c3.113281-5.234375 2.683594-11.976562-1.003906-16.816406-2.144531-2.835938-29.332031-38.382813-72.9375-74.328125-26.300781-21.675781-53.152344-38.984375-79.804688-51.449219-33.898437-15.847656-67.601562-23.882812-100.175781-23.882812-32.578125 0-66.28125 8.035156-100.179688 23.882812-26.65625 12.464844-53.503906 29.773438-79.804687 51.449219-44.488281 36.671875-71.910156 72.953125-73.054687 74.480469-3.949219 5.265624-3.949219 12.746093 0 18.011718 1.144531 1.523438 28.566406 37.808594 73.054687 74.480469 26.300781 21.675781 53.148437 38.984375 79.804687 51.449219 33.898438 15.847656 67.601563 23.882812 100.179688 23.882812 32.574219 0 66.277344-8.035156 100.175781-23.882812 26.652344-12.464844 53.503907-29.773438 79.804688-51.449219 44.488281-36.671875 71.910156-72.953125 73.054687-74.480469.320313-.429687.613282-.886718.886719-1.347656zm-414.292969-68.421875c37.78125-31.046875 96.273438-68.050781 160.367188-68.050781 64.097656 0 122.589844 37.003906 160.371094 68.050781 27.1875 22.339844 47.902343 44.925781 59.164062 58.125-6.875 3.691406-13.996094 5.054687-21.527344 4.125-11.964844-1.484375-22.070312-8.386719-27.300781-12.644531-10.019531-9.875-20.375-19.171875-30.789063-27.644532-60.972656-49.597656-109.742187-60.007812-139.914062-60.007812-54.671875 0-106.265625 32.632812-139.917969 60.007812-10.542969 8.578126-21.027343 18-31.160156 28.015626-10.292969 9.699218-20.964844 13.707031-32.605469 12.273437-5.597656-.695313-10.78125-2.578125-15.257812-4.820313 11.386718-13.285156 31.851562-35.476562 58.570312-57.429687zm160.351563-6.351563c36.898437 0 66.917969 30.101563 66.917969 67.101563 0 37.003906-30.019532 67.105469-66.917969 67.105469-36.898438 0-66.917969-30.101563-66.917969-67.105469 0-37 30.019531-67.101563 66.917969-67.101563zm.019531 195.929688c-64.097656 0-122.589844-37.007812-160.371094-68.050781-12.191406-10.015625-23.074218-20.082031-32.394531-29.328125 15.226563-1.527344 29.683594-8.476563 42.429687-20.542969.078126-.074219.15625-.148437.230469-.226563 9.488281-9.378906 19.285157-18.191406 29.121094-26.191406 9.332031-7.59375 20.167969-15.640625 32.054687-23.121094-5.148437 11.84375-8.011718 24.910157-8.011718 38.632813 0 53.546875 43.480468 97.109375 96.921875 97.109375 53.445312 0 96.921875-43.5625 96.921875-97.109375 0-13.746094-2.871094-26.828125-8.03125-38.691406 10.136718 6.378906 20.847656 14.015625 32.113281 23.179687 9.835937 8 19.632813 16.8125 29.117187 26.191406.3125.308594.636719.601563.972657.882813 9.078125 7.527344 23.664062 16.917969 41.992187 19.523437-40.988281 40.695313-112.765625 97.742188-193.066406 97.742188zm0 0"/></svg>